<?xml version="1.0" standalone="no"?>
<!DOCTYPE svg PUBLIC "-//W3C//DTD SVG 20010904//EN"
 "http://www.w3.org/TR/2001/REC-SVG-20010904/DTD/svg10.dtd">
<svg version="1.0" xmlns="http://www.w3.org/2000/svg"
 width="200.000000pt" height="200.000000pt" viewBox="0 0 200.000000 200.000000"
 preserveAspectRatio="xMidYMid meet">
<metadata>
Created by potrace 1.16, written by Peter Selinger 2001-2019
</metadata>
<g transform="translate(0.000000,200.000000) scale(0.100000,-0.100000)"
fill="#000000" stroke="none">
<path d="M1310 1489 c-14 -5 -50 -34 -80 -63 -49 -48 -61 -54 -110 -60 -41 -4
-61 -12 -83 -34 -28 -28 -28 -29 -10 -60 18 -31 18 -31 -10 -60 -15 -15 -25
-31 -22 -34 3 -3 -12 -20 -34 -37 -49 -39 -101 -44 -134 -13 -13 12 -29 22
-35 22 -7 0 -12 14 -12 31 0 34 -46 89 -76 89 -14 0 -16 8 -12 51 l5 50 -34
-33 c-52 -50 -91 -115 -113 -186 -75 -241 81 -486 339 -534 129 -24 285 35
376 142 16 19 17 22 3 17 -9 -3 -19 0 -22 8 -10 26 -65 47 -96 36 -25 -8 -33
-6 -68 28 -29 28 -42 51 -51 89 -13 50 -12 52 20 97 18 25 37 45 43 45 5 0 22
12 37 26 27 26 28 26 58 8 26 -15 32 -16 47 -3 23 19 44 71 44 110 0 26 12 45
59 94 63 65 75 90 69 146 -3 31 -6 34 -38 36 -19 1 -46 -2 -60 -8z m69 -26
c-8 -9 -32 -29 -53 -45 -21 -15 -35 -28 -31 -28 4 0 0 -9 -11 -21 -15 -16 -16
-22 -5 -29 10 -6 2 -14 -30 -30 l-44 -23 20 23 c14 16 16 24 7 27 -6 3 -9 10
-6 15 4 7 2 8 -5 4 -8 -6 -9 -11 -1 -20 7 -10 -5 -29 -49 -77 -48 -52 -62 -62
-72 -51 -11 10 -19 6 -46 -20 -28 -27 -33 -29 -39 -14 -4 11 2 26 19 44 l26
27 -20 32 -20 31 28 20 c15 10 50 22 76 24 42 5 56 13 112 67 59 57 66 61 110
61 43 0 46 -2 34 -17z"/>
</g>
</svg>
